<svg width="48" height="48" viewBox="0 0 48 48" fill="none" xmlns="http://www.w3.org/2000/svg">
<circle cx="24" cy="24" r="24" fill="white"/>
<g clip-path="url(#clip0_601_2)">
<path d="M35.3697 20.531C35.0487 22.8535 33.8508 24.2669 31.7758 24.7713C33.143 25.4683 34.0741 26.3706 34.5691 27.4781C35.0641 28.5857 35.0232 29.9865 34.4464 31.6808C34.1473 32.5451 33.7589 33.276 33.2812 33.8734C32.8035 34.4707 32.2705 34.9296 31.6823 35.25C31.094 35.5703 30.4051 35.7907 29.6156 35.9112C28.8261 36.0317 28.0211 36.0661 27.2008 36.0143C26.3805 35.9626 25.4559 35.8398 24.427 35.6458L23.2834 40.4144L20.4188 39.7274L21.5445 35.0335C20.5524 34.7956 19.7975 34.608 19.2796 34.4706L18.1494 39.1831L15.2848 38.4961L16.4285 33.7275C16.2053 33.6739 15.8712 33.5905 15.4263 33.4772C14.9813 33.3639 14.6411 33.279 14.4055 33.2225L10.6852 32.3303L12.0826 29.0464L14.1473 29.5416C14.7674 29.6903 15.2032 29.4586 15.4549 28.8466L17.2579 21.329L17.5555 21.4004C17.4841 21.3701 17.3864 21.34 17.2624 21.3103L18.5495 15.9433C18.5916 15.0568 18.1415 14.5006 17.199 14.2746L15.1343 13.7794L15.8698 10.7125L19.8088 11.677C20.6024 11.8673 21.2054 12.0053 21.6176 12.091L22.7478 7.37849L25.6124 8.06551L24.5046 12.6845C25.5274 12.9035 26.2869 13.0724 26.7829 13.1914L27.8817 8.60977L30.7463 9.29679L29.6161 14.0093C30.5749 14.3315 31.4093 14.68 32.1194 15.0546C32.8295 15.4293 33.4629 15.8778 34.0195 16.4003C34.5761 16.9227 34.9711 17.5316 35.2043 18.2269C35.4375 18.9223 35.4926 19.6903 35.3697 20.531ZM28.9261 29.7636C29.0338 29.3148 29.0364 28.8935 28.9342 28.4998C28.8319 28.1062 28.6712 27.7644 28.4522 27.4746C28.2332 27.1847 27.9223 26.9091 27.5194 26.6477C27.1166 26.3863 26.7381 26.1735 26.384 26.0095C26.0299 25.8455 25.5846 25.6793 25.0479 25.5111C24.5112 25.3428 24.0879 25.2215 23.7779 25.1472C23.4678 25.0728 23.0664 24.9831 22.5736 24.8781C22.0808 24.7731 21.7848 24.7087 21.6856 24.6849L20.1696 31.0057C20.2688 31.0295 20.4975 31.0876 20.8556 31.1801C21.2138 31.2726 21.5106 31.3471 21.7463 31.4036C21.9819 31.4601 22.3127 31.5295 22.7389 31.612C23.165 31.6944 23.5337 31.7564 23.845 31.7981C24.1563 31.8398 24.5224 31.8716 24.9434 31.8935C25.3643 31.9153 25.7294 31.9106 26.0385 31.8793C26.3477 31.8479 26.6736 31.7877 27.0163 31.6985C27.359 31.6092 27.6487 31.481 27.8856 31.3137C28.1224 31.1463 28.3341 30.9334 28.5207 30.6749C28.7073 30.4164 28.8424 30.1127 28.9261 29.7636ZM29.7403 20.5454C29.8389 20.134 29.8489 19.7508 29.7701 19.3957C29.6914 19.0406 29.565 18.7334 29.3912 18.4742C29.2173 18.215 28.9615 17.969 28.6239 17.7364C28.2862 17.5039 27.9699 17.3192 27.6748 17.1825C27.3797 17.0458 27.0104 16.9045 26.5667 16.7586C26.1231 16.6126 25.7672 16.5108 25.4991 16.4531C25.2309 16.3954 24.8946 16.3213 24.4901 16.2309C24.0856 16.1404 23.8399 16.0848 23.7531 16.064L22.3762 21.805C22.4382 21.8199 22.6514 21.8743 23.0157 21.9683C23.3801 22.0623 23.6684 22.1314 23.8807 22.1757C24.093 22.2201 24.406 22.282 24.8197 22.3614C25.2334 22.4408 25.5827 22.4884 25.8675 22.5039C26.1522 22.5195 26.488 22.5275 26.8748 22.528C27.2615 22.5284 27.5899 22.4852 27.8599 22.3984C28.1299 22.3115 28.3997 22.1982 28.6692 22.0585C28.9388 21.9188 29.1638 21.719 29.3441 21.459C29.5245 21.199 29.6566 20.8945 29.7403 20.5454Z" fill="black"/>
</g>
<defs>
<clipPath id="clip0_601_2">
<rect width="24" height="32" fill="white" transform="translate(17 6) rotate(13.4865)"/>
</clipPath>
</defs>
</svg>
