<svg width="32" height="32" viewBox="0 0 32 32" fill="none" xmlns="http://www.w3.org/2000/svg">
<path d="M16.5 18C17.4283 18 18.3185 17.6313 18.9749 16.9749C19.6313 16.3185 20 15.4283 20 14.5C20 13.5717 19.6313 12.6815 18.9749 12.0251C18.3185 11.3687 17.4283 11 16.5 11C15.5717 11 14.6815 11.3687 14.0251 12.0251C13.3687 12.6815 13 13.5717 13 14.5C13 15.4283 13.3687 16.3185 14.0251 16.9749C14.6815 17.6313 15.5717 18 16.5 18Z" fill="white"/>
<path fill-rule="evenodd" clip-rule="evenodd" d="M25.3377 3.91939C20.4563 -1.30646 12.5412 -1.30646 7.66103 3.91939C2.77966 9.14525 2.77966 17.619 7.66103 22.8449L7.69603 22.8824L14.4149 30.0754C14.968 30.6674 15.718 31 16.5 31C17.282 31 18.032 30.6674 18.5851 30.0754L25.339 22.8449C30.2203 17.619 30.2203 9.14525 25.339 3.91939H25.3377ZM8.98606 5.33794C10.9837 3.2303 13.6786 2.0537 16.4833 2.0647C19.2879 2.07569 21.9747 3.2734 23.9578 5.39665C25.941 7.51989 27.0595 10.3964 27.0695 13.399C27.0796 16.4016 25.9803 19.2866 24.0114 21.425L17.2575 28.6569C17.0562 28.8722 16.7833 28.9931 16.4987 28.9931C16.2142 28.9931 15.9413 28.8722 15.74 28.6569L9.01731 21.4598L9.01481 21.4571L8.98606 21.425C6.99375 19.2918 5.8745 16.3987 5.8745 13.3821C5.8745 10.3655 6.99375 7.47248 8.98606 5.33927V5.33794Z" fill="white"/>
</svg>
