<svg width="8" height="14" viewBox="0 0 8 14" fill="none" xmlns="http://www.w3.org/2000/svg">
<path opacity="0.9" d="M8 7C8 6.79839 7.9182 6.6129 7.76278 6.46774L1.28425 0.209677C1.13701 0.0725806 0.957055 0 0.744376 0C0.327198 0 0 0.314516 0 0.733871C0 0.935484 0.0817996 1.12097 0.212679 1.25806L6.16769 7L0.212679 12.7419C0.0817996 12.879 0 13.0565 0 13.2661C0 13.6855 0.327198 14 0.744376 14C0.957055 14 1.13701 13.9274 1.28425 13.7823L7.76278 7.53226C7.9182 7.37903 8 7.20161 8 7Z" fill="white"/>
</svg>
