<svg width="26" height="26" viewBox="0 0 26 26" fill="none" xmlns="http://www.w3.org/2000/svg">
<path d="M23.0011 26H22.8311C3.18835 24.87 0.399378 8.29 0.00952132 3.23C-0.0218919 2.83658 0.0246044 2.44082 0.146346 2.06541C0.268087 1.69 0.462681 1.3423 0.718978 1.04225C0.975274 0.7422 1.28824 0.495688 1.63993 0.316839C1.99163 0.137991 2.37514 0.0303218 2.76851 9.37591e-07H8.27648C8.67689 -0.000386826 9.06819 0.119511 9.3997 0.344163C9.7312 0.568815 9.98764 0.88787 10.1358 1.26L11.6552 5C11.8015 5.36355 11.8378 5.76208 11.7596 6.14609C11.6814 6.5301 11.4922 6.88267 11.2154 7.16L9.08618 9.31C9.41877 11.2007 10.3239 12.9437 11.6791 14.303C13.0343 15.6622 14.7742 16.5723 16.6634 16.91L18.8326 14.76C19.114 14.4862 19.4697 14.3013 19.8555 14.2283C20.2412 14.1554 20.6399 14.1977 21.0018 14.35L24.7704 15.86C25.1368 16.0129 25.4494 16.2714 25.6684 16.6027C25.8873 16.9339 26.0028 17.3229 26 17.72V23C26 23.7956 25.684 24.5587 25.1216 25.1213C24.5592 25.6839 23.7964 26 23.0011 26ZM3.00842 2C2.7433 2 2.48904 2.10536 2.30157 2.29289C2.1141 2.48043 2.00879 2.73478 2.00879 3V3.08C2.46862 9 5.41753 23 22.9411 24C23.0724 24.0081 23.204 23.9902 23.3284 23.9473C23.4528 23.9045 23.5675 23.8374 23.666 23.7501C23.7644 23.6628 23.8447 23.5568 23.9021 23.4384C23.9595 23.32 23.993 23.1914 24.0007 23.06V17.72L20.2321 16.21L17.3631 19.06L16.8833 19C8.18651 17.91 7.00694 9.21 7.00694 9.12L6.94697 8.64L9.78592 5.77L8.28647 2H3.00842Z" fill="white"/>
</svg>
