<svg width="30" height="30" viewBox="0 0 30 30" fill="none" xmlns="http://www.w3.org/2000/svg">
<path fill-rule="evenodd" clip-rule="evenodd" d="M14.9999 0.333374C6.89992 0.333374 0.333252 6.90004 0.333252 15C0.333252 23.1 6.89992 29.6667 14.9999 29.6667C23.0999 29.6667 29.6666 23.1 29.6666 15C29.6666 6.90004 23.0999 0.333374 14.9999 0.333374ZM21.3573 12.52C21.4743 12.3862 21.5634 12.2304 21.6194 12.0616C21.6753 11.8928 21.6969 11.7146 21.6829 11.5374C21.669 11.3601 21.6197 11.1875 21.538 11.0295C21.4563 10.8716 21.3439 10.7316 21.2073 10.6178C21.0707 10.504 20.9128 10.4187 20.7427 10.3668C20.5727 10.3149 20.3939 10.2976 20.2171 10.3158C20.0402 10.334 19.8688 10.3874 19.7129 10.4729C19.557 10.5583 19.4198 10.6741 19.3093 10.8134L13.5759 17.692L10.6093 14.724C10.3578 14.4812 10.021 14.3468 9.67138 14.3498C9.32179 14.3528 8.98737 14.4931 8.74016 14.7403C8.49295 14.9875 8.35272 15.3219 8.34969 15.6715C8.34665 16.0211 8.48104 16.3579 8.72392 16.6094L12.7239 20.6094C12.8549 20.7403 13.0118 20.8425 13.1845 20.9095C13.3572 20.9764 13.5419 21.0066 13.7269 20.9982C13.912 20.9898 14.0932 20.943 14.2591 20.8606C14.425 20.7783 14.572 20.6623 14.6906 20.52L21.3573 12.52Z" fill="#E3AD5D"/>
</svg>
