<svg width="46" height="40" viewBox="0 0 46 40" fill="none" xmlns="http://www.w3.org/2000/svg">
<path fill-rule="evenodd" clip-rule="evenodd" d="M44 20C44 29.9411 35.9411 38 26 38C18.8861 38 12.736 33.8731 9.81333 27.8828C9.52738 27.2967 8.72508 27.1467 8.22446 27.5646C7.90645 27.83 7.78083 28.2723 7.96012 28.6457C11.1851 35.3626 18.051 40 26 40C37.0457 40 46 31.0457 46 20C46 8.9543 37.0457 0 26 0C18.3417 0 11.6887 4.30443 8.32838 10.6259C8.13388 10.9918 8.24109 11.4388 8.54815 11.717C9.03129 12.1548 9.83907 12.0379 10.1487 11.4641C13.1896 5.82899 19.1476 2 26 2C35.9411 2 44 10.0589 44 20Z" fill="#E3AD5D"/>
<path d="M30.7071 20.7071C31.0976 20.3166 31.0976 19.6834 30.7071 19.2929L24.3431 12.9289C23.9526 12.5384 23.3195 12.5384 22.9289 12.9289C22.5384 13.3195 22.5384 13.9526 22.9289 14.3431L28.5858 20L22.9289 25.6569C22.5384 26.0474 22.5384 26.6805 22.9289 27.0711C23.3195 27.4616 23.9526 27.4616 24.3431 27.0711L30.7071 20.7071ZM0 21H30V19H0V21Z" fill="#E3AD5D"/>
</svg>
