<svg width="32" height="32" viewBox="0 0 32 32" fill="none" xmlns="http://www.w3.org/2000/svg">
<path fill-rule="evenodd" clip-rule="evenodd" d="M16 1.33331C7.89999 1.33331 1.33333 7.89998 1.33333 16C1.33333 24.1 7.89999 30.6666 16 30.6666C24.1 30.6666 30.6667 24.1 30.6667 16C30.6667 7.89998 24.1 1.33331 16 1.33331ZM22.3573 13.52C22.4744 13.3862 22.5635 13.2303 22.6194 13.0615C22.6754 12.8928 22.697 12.7145 22.683 12.5373C22.6691 12.3601 22.6198 12.1874 22.5381 12.0295C22.4564 11.8716 22.344 11.7316 22.2074 11.6178C22.0708 11.504 21.9128 11.4186 21.7428 11.3667C21.5727 11.3149 21.394 11.2975 21.2172 11.3157C21.0403 11.334 20.8689 11.3874 20.713 11.4728C20.5571 11.5583 20.4198 11.674 20.3093 11.8133L14.576 18.692L11.6093 15.724C11.3579 15.4811 11.0211 15.3467 10.6715 15.3497C10.3219 15.3528 9.98745 15.493 9.74024 15.7402C9.49303 15.9874 9.3528 16.3218 9.34976 16.6714C9.34672 17.021 9.48112 17.3578 9.72399 17.6093L13.724 21.6093C13.855 21.7402 14.0119 21.8424 14.1845 21.9094C14.3572 21.9763 14.542 22.0066 14.727 21.9982C14.912 21.9898 15.0933 21.9429 15.2592 21.8606C15.4251 21.7782 15.5721 21.6622 15.6907 21.52L22.3573 13.52Z" fill="#E3AD5D"/>
</svg>
