<svg width="32" height="32" viewBox="0 0 32 32" fill="none" xmlns="http://www.w3.org/2000/svg">
<path d="M26.0011 29H25.8311C6.18835 27.87 3.39938 11.29 3.00952 6.23C2.97811 5.83658 3.0246 5.44082 3.14635 5.06541C3.26809 4.69 3.46268 4.3423 3.71898 4.04225C3.97527 3.7422 4.28824 3.49569 4.63993 3.31684C4.99163 3.13799 5.37514 3.03032 5.76851 3H11.2765C11.6769 2.99961 12.0682 3.11951 12.3997 3.34416C12.7312 3.56881 12.9876 3.88787 13.1358 4.26L14.6552 8C14.8015 8.36355 14.8378 8.76208 14.7596 9.14609C14.6814 9.5301 14.4922 9.88267 14.2154 10.16L12.0862 12.31C12.4188 14.2007 13.3239 15.9437 14.6791 17.303C16.0343 18.6622 17.7742 19.5723 19.6634 19.91L21.8326 17.76C22.114 17.4862 22.4697 17.3013 22.8555 17.2283C23.2412 17.1554 23.6399 17.1977 24.0018 17.35L27.7704 18.86C28.1368 19.0129 28.4494 19.2714 28.6684 19.6027C28.8873 19.9339 29.0028 20.3229 29 20.72V26C29 26.7956 28.684 27.5587 28.1216 28.1213C27.5592 28.6839 26.7964 29 26.0011 29ZM6.00842 5C5.7433 5 5.48904 5.10536 5.30157 5.29289C5.1141 5.48043 5.00879 5.73478 5.00879 6V6.08C5.46862 12 8.41753 26 25.9411 27C26.0724 27.0081 26.204 26.9902 26.3284 26.9473C26.4528 26.9045 26.5675 26.8374 26.666 26.7501C26.7644 26.6628 26.8447 26.5568 26.9021 26.4384C26.9595 26.32 26.993 26.1914 27.0007 26.06V20.72L23.2321 19.21L20.3631 22.06L19.8833 22C11.1865 20.91 10.0069 12.21 10.0069 12.12L9.94697 11.64L12.7859 8.77L11.2865 5H6.00842Z" fill="white"/>
</svg>
