<svg width="32" height="32" viewBox="0 0 32 32" fill="none" xmlns="http://www.w3.org/2000/svg">
<path d="M14.6912 25.3812C17.0633 25.3807 19.367 24.5867 21.2355 23.1255L27.1103 29L29 27.1104L23.1252 21.2359C24.5872 19.3673 25.3818 17.0632 25.3824 14.6906C25.3824 8.79608 20.586 4 14.6912 4C8.79633 4 4 8.79608 4 14.6906C4 20.5851 8.79633 25.3812 14.6912 25.3812ZM14.6912 6.67265C19.1133 6.67265 22.7096 10.2687 22.7096 14.6906C22.7096 19.1125 19.1133 22.7086 14.6912 22.7086C10.269 22.7086 6.6728 19.1125 6.6728 14.6906C6.6728 10.2687 10.269 6.67265 14.6912 6.67265Z" fill="white"/>
</svg>
